<svg width="170" height="193" viewBox="0 0 170 193" fill="none" xmlns="http://www.w3.org/2000/svg">
<path d="M76.666 62.4692L78.7925 54.3174H94.7418L97.2228 62.4692L103.603 65.3047L112.594 61.406L121.678 71.33L116.716 79.4818L119.197 86.9248L128.413 89.4058V103.229L119.197 105.001L116.716 112.798L121.678 120.241L111.046 130.165L103.603 125.912L97.2228 128.039L94.7418 138.317H78.7925L76.666 128.039L68.8685 125.912L61.78 131.583L50.7927 121.659L56.4635 112.798L54.337 105.001L43.7041 103.229V89.4058L54.337 86.9248L56.4635 79.4818L52.2104 71.33L63.1977 60.3427L71.704 65.3047L76.666 62.4692Z" fill="#008EE2"/>
<path d="M76.666 62.4692L78.7925 54.3174H94.7418L97.2228 62.4692L103.603 65.3047L112.594 61.406L121.678 71.33L116.716 79.4818L119.197 86.9248L128.413 89.4058V103.229L119.197 105.001L116.716 112.798L121.678 120.241L111.046 130.165L103.603 125.912L97.2228 128.039L94.7418 138.317H78.7925L76.666 128.039L68.8685 125.912L61.78 131.583L50.7927 121.659L56.4635 112.798L54.337 105.001L43.7041 103.229V89.4058L54.337 86.9248L56.4635 79.4818L52.2104 71.33L63.1977 60.3427L71.704 65.3047L76.666 62.4692Z" stroke="#008EE2"/>
<circle cx="86.5266" cy="95.1399" r="14.886" fill="white"/>
<path d="M16.711 95.1928C16.711 63.1928 34.711 45.2936 52.211 36.1931C69.7109 27.0927 98.711 21.7817 129.711 42.6933M129.711 42.6933L126.73 21.7816M129.711 42.6933L113.048 50.9264" stroke="#262F3A" stroke-width="14" stroke-linecap="round"/>
<path d="M153.094 97.2496C153.094 129.25 135.094 147.149 117.594 156.249C100.094 165.35 71.0937 170.661 40.0936 149.749M40.0936 149.749L43.0749 170.661M40.0936 149.749L56.7569 141.516" stroke="#262F3A" stroke-width="14" stroke-linecap="round"/>
</svg>
