<svg width="191" height="144" viewBox="0 0 191 144" fill="none" xmlns="http://www.w3.org/2000/svg">
<path d="M7 95.5C7 46.6228 46.6228 7 95.5 7C144.377 7 184 46.6228 184 95.5C184 105.725 183.179 113.123 181.167 119.697C179.43 125.375 176.706 130.757 172.396 137H95.5H44.5H17.312C10.7307 124.628 7 110.509 7 95.5Z" stroke="#262F3A" stroke-width="14"/>
<path d="M159.5 114C170.807 78.3317 145.064 29.764 96 27" stroke="#008EE2" stroke-width="14" stroke-linecap="round"/>
<path d="M108 90C108 97.3478 102.238 103 95.5 103C88.7625 103 83 97.3478 83 90C83 82.6522 88.7625 77 95.5 77C102.238 77 108 82.6522 108 90Z" fill="white" stroke="#008EE2" stroke-width="14"/>
<line x1="111.391" y1="97.8695" x2="136.87" y2="110.609" stroke="#008EE2" stroke-width="14" stroke-linecap="round"/>
</svg>
