<svg width="191" height="144" viewBox="0 0 191 144" fill="none" xmlns="http://www.w3.org/2000/svg">
<rect x="7" y="7" width="177" height="106" rx="8" fill="white" stroke="#262F3A" stroke-width="14"/>
<path d="M99.6306 119C99.6563 122.063 99.8286 125.075 100.494 128.163C101.104 130.99 102.092 133.833 103.574 137H87.1409C88.6889 133.762 89.7049 130.844 90.318 127.951C90.9611 124.917 91.1197 121.945 91.134 119H99.6306Z" fill="#C0C0C0" stroke="#262F3A" stroke-width="14" stroke-linecap="round"/>
<circle cx="72" cy="38" r="18" fill="white" stroke="#008EE2" stroke-width="4"/>
<path d="M77.246 32.7543C77.1606 29.5359 76.1975 28.4273 72.6558 27.8363M72.6558 27.8363C68.7007 28.1025 67.3687 29.0754 67.082 32.7543C67.082 36.3609 67.7378 38.0002 72.6558 38.0002C76.2624 38.0002 77.9017 40.6231 77.9017 43.9018C77.9017 47.1806 77.0405 48.5083 72.6558 48.8199M72.6558 27.8363V24.5576M72.6558 48.8199C68.8587 48.6494 67.7847 47.415 67.082 43.9018M72.6558 48.8199V52.0986" stroke="#008EE2" stroke-width="4"/>
<circle cx="72" cy="80" r="18" fill="white" stroke="#008EE2" stroke-width="4"/>
<path d="M80.2924 72.627C78.5811 70.0356 76.3277 68.7803 72.363 68.7803C68.0934 69.4214 64.7828 71.3762 63.2138 76.1531C62.5756 78.9074 62.5658 80.4517 63.2138 83.2054C65.941 88.3761 67.9072 90.2163 72.363 91.2193C75.8459 90.9989 77.5688 90.0372 80.2924 87.052" stroke="#008EE2" stroke-width="4" stroke-linecap="round"/>
<line x1="60.2373" y1="76.3604" x2="70.0078" y2="76.3604" stroke="#008EE2" stroke-width="4" stroke-linecap="round"/>
<line x1="60.2373" y1="82.2617" x2="70.0078" y2="82.2617" stroke="#008EE2" stroke-width="4" stroke-linecap="round"/>
<circle cx="119" cy="38" r="18" fill="white" stroke="#008EE2" stroke-width="4"/>
<path d="M126.301 31.7834C126.404 30.0662 126.318 29.2193 125.061 27.7542C123.944 26.8891 122.903 26.2045 121.342 26.2045C119.354 26.2069 117.72 26.1102 116.074 27.7542C114.428 29.3982 115.301 34.233 115.143 35.8126C114.833 38.9119 114.099 42.6452 112.354 46.6603H125.061" stroke="#008EE2" stroke-width="4" stroke-linecap="round"/>
<line x1="112.804" y1="35.3623" x2="119.961" y2="35.3623" stroke="#008EE2" stroke-width="4" stroke-linecap="round"/>
<circle cx="119" cy="80" r="18" fill="white" stroke="#008EE2" stroke-width="4"/>
<path d="M110.804 70.4922L119.656 80.0004M119.656 80.0004L127.853 70.4922M119.656 80.0004H113.427M119.656 80.0004H125.23M119.656 80.0004V87.2135M119.656 92.7873V87.2135M119.656 87.2135H114.082M119.656 87.2135H124.574" stroke="#008EE2" stroke-width="4" stroke-linecap="round"/>
</svg>
